<svg width="1000" height="998.6962190352021" viewBox="0 0 1000 998.6962190352021" xmlns="http://www.w3.org/2000/svg"><defs/><path fill="#652d29" transform="matrix(2.28161668839635 0 0 2.28161668839635 -149.82099087353328 -132.90365058670147)" d="M 175.30725714286 264.40691428571 L 174.20725714286 260.90691428571 C 172.90725714286 256.50691428571 168.20725714286 254.10691428571 163.80725714286 255.40691428571 L 150.10725714286 259.60691428571 L 145.90725714286 245.90691428571 C 144.60725714286 241.50691428571 139.90725714286 239.10691428571 135.50725714286 240.40691428571 L 132.00725714286 241.50691428571 C 131.80725714286 241.60691428571 131.60725714286 241.60691428571 131.40725714286 241.70691428571 L 131.40725714286 286.60691428571 L 136.70725714286 285.00691428571 L 140.90725714286 298.70691428571 C 142.20725714286 303.10691428571 146.90725714286 305.50691428571 151.30725714286 304.20691428571 L 154.80725714286 303.10691428571 C 159.20725714286 301.80691428571 161.60725714286 297.10691428571 160.30725714286 292.70691428571 L 156.10725714286 279.00691428571 L 169.80725714286 274.80691428571 C 174.20725714286 273.40691428571 176.70725714286 268.80691428571 175.30725714286 264.40691428571 Z"/><path fill="#652d29" transform="matrix(2.28161668839635 0 0 2.28161668839635 -149.82099087353328 -132.90365058670147)" d="M 232.40725714286 266.00691428571 C 243.00725714286 262.70691428571 249.00725714286 251.50691428571 245.70725714286 240.80691428571 C 242.40725714286 230.20691428571 231.20725714286 224.20691428571 220.50725714286 227.50691428571 C 209.90725714286 230.80691428571 203.90725714286 242.00691428571 207.20725714286 252.70691428571 C 210.50725714286 263.30691428571 221.70725714286 269.30691428571 232.40725714286 266.00691428571 Z M 223.20725714286 236.20691428571 C 229.10725714286 234.40691428571 235.20725714286 237.70691428571 237.00725714286 243.50691428571 C 238.80725714286 249.30691428571 235.50725714286 255.50691428571 229.70725714286 257.30691428571 C 223.90725714286 259.10691428571 217.60725714286 255.80691428571 215.80725714286 250.00691428571 C 214.00725714286 244.20691428571 217.30725714286 238.00691428571 223.20725714286 236.20691428571 Z"/><path fill="#652d29" transform="matrix(2.28161668839635 0 0 2.28161668839635 -149.82099087353328 -132.90365058670147)" d="M 217.40725714286 297.90691428571 C 217.40725714286 304.20296043378 212.30330329093 309.30691428571 206.00725714286 309.30691428571 C 199.71121099479 309.30691428571 194.60725714286 304.20296043378 194.60725714286 297.90691428571 C 194.60725714286 291.61086813764 199.71121099479 286.50691428571 206.00725714286 286.50691428571 C 212.30330329093 286.50691428571 217.40725714286 291.61086813764 217.40725714286 297.90691428571 Z"/><path fill="#f18ca6" transform="matrix(2.28161668839635 0 0 2.28161668839635 -149.82099087353328 -132.90365058670147)" d="M 394.10725714286 123.90691428571 L 175.20725714286 123.90691428571 C 151.00725714286 123.90691428571 131.40725714286 143.50691428571 131.40725714286 167.70691428571 L 131.40725714286 199.70691428571 C 147.80725714286 201.30691428571 156.40725714286 212.70691428571 167.80725714286 214.80691428571 C 178.10725714286 216.70691428571 191.10725714286 212.90691428571 204.80725714286 208.70691428571 C 205.90725714286 208.30691428571 221.80725714286 203.50691428571 222.90725714286 203.10691428571 C 236.60725714286 198.90691428571 249.50725714286 194.70691428571 256.90725714286 187.40691428571 C 267.90725714286 176.60691428571 265.40725714286 154.90691428571 295.80725714286 145.60691428571 C 318.60725714286 138.60691428571 336.20725714286 152.70691428571 346.90725714286 169.70691428571 C 360.00725714286 190.50691428571 412.40725714286 283.80691428571 421.30725714286 299.80691428571 C 430.20725714286 315.80691428571 429.90725714286 335.40691428571 417.50725714286 343.10691428571 C 405.00725714286 350.80691428571 392.90725714286 354.60691428571 367.40725714286 337.40691428571 C 341.80725714286 320.30691428571 306.50725714286 299.20691428571 306.50725714286 299.20691428571 L 190.00725714286 335.00691428571 C 190.00725714286 335.00691428571 172.60725714286 372.40691428571 161.10725714286 400.90691428571 C 157.30725714286 410.30691428571 153.40725714286 417.00691428571 149.50725714286 421.80691428571 C 156.80725714286 427.20691428571 165.80725714286 430.30691428571 175.50725714286 430.30691428571 L 394.40725714286 430.30691428571 C 418.60725714286 430.30691428571 438.20725714286 410.70691428571 438.20725714286 386.50691428571 L 438.20725714286 167.60691428571 C 437.90725714286 143.50691428571 418.30725714286 123.90691428571 394.10725714286 123.90691428571 Z"/><path fill="#652d29" transform="matrix(2.28161668839635 0 0 2.28161668839635 -149.82099087353328 -132.90365058670147)" d="M 326.30725714286 243.30691428571 C 326.30725714286 249.60296043378 321.20330329093 254.70691428571 314.90725714286 254.70691428571 C 308.61121099479 254.70691428571 303.50725714286 249.60296043378 303.50725714286 243.30691428571 C 303.50725714286 237.01086813764 308.61121099479 231.90691428571 314.90725714286 231.90691428571 C 321.20330329093 231.90691428571 326.30725714286 237.01086813764 326.30725714286 243.30691428571 Z"/><path fill="#652d29" transform="matrix(2.28161668839635 0 0 2.28161668839635 -149.82099087353328 -132.90365058670147)" d="M 297.90725714286 228.30691428571 C 297.90725714286 234.60296043378 292.80330329093 239.70691428571 286.50725714286 239.70691428571 C 280.21121099479 239.70691428571 275.10725714286 234.60296043378 275.10725714286 228.30691428571 C 275.10725714286 222.01086813764 280.21121099479 216.90691428571 286.50725714286 216.90691428571 C 292.80330329093 216.90691428571 297.90725714286 222.01086813764 297.90725714286 228.30691428571 Z"/><path fill="#652d29" transform="matrix(2.28161668839635 0 0 2.28161668839635 -149.82099087353328 -132.90365058670147)" d="M 283.40725714286 277.60691428571 C 283.40725714286 283.90296043378 278.30330329093 289.00691428571 272.00725714286 289.00691428571 C 265.71121099479 289.00691428571 260.60725714286 283.90296043378 260.60725714286 277.60691428571 C 260.60725714286 271.31086813764 265.71121099479 266.20691428571 272.00725714286 266.20691428571 C 278.30330329093 266.20691428571 283.40725714286 271.31086813764 283.40725714286 277.60691428571 Z"/><path fill="#652d29" transform="matrix(2.28161668839635 0 0 2.28161668839635 -149.82099087353328 -132.90365058670147)" d="M 312.90725714286 200.00691428571 C 312.90725714286 206.30296043378 307.80330329093 211.40691428571 301.50725714286 211.40691428571 C 295.21121099479 211.40691428571 290.10725714286 206.30296043378 290.10725714286 200.00691428571 C 290.10725714286 193.71086813764 295.21121099479 188.60691428571 301.50725714286 188.60691428571 C 307.80330329093 188.60691428571 312.90725714286 193.71086813764 312.90725714286 200.00691428571 Z"/><path fill="#652d29" transform="matrix(2.28161668839635 0 0 2.28161668839635 -149.82099087353328 -132.90365058670147)" d="M 341.20725714286 215.00691428571 C 341.20725714286 221.30296043378 336.10330329093 226.40691428571 329.80725714286 226.40691428571 C 323.51121099479 226.40691428571 318.40725714286 221.30296043378 318.40725714286 215.00691428571 C 318.40725714286 208.71086813764 323.51121099479 203.60691428571 329.80725714286 203.60691428571 C 336.10330329093 203.60691428571 341.20725714286 208.71086813764 341.20725714286 215.00691428571 Z"/></svg>